HIERARCHY
ROOT Hips
{
	OFFSET 0.000000 100.481300 0.000000
	CHANNELS 6 Xposition Yposition Zposition Xrotation Yrotation Zrotation
	JOINT Spine
	{
		OFFSET -0.279200 12.230698 -2.892100
		CHANNELS 3 Xrotation Yrotation Zrotation
		JOINT Spine1
		{
			OFFSET -0.325700 14.269203 -3.374200
			CHANNELS 3 Xrotation Yrotation Zrotation
			JOINT Spine2
			{
				OFFSET -0.372300 16.307602 -0.352600
				CHANNELS 3 Xrotation Yrotation Zrotation
				JOINT Neck
				{
					OFFSET -0.418800 17.814194 8.416900
					CHANNELS 3 Xrotation Yrotation Zrotation
					JOINT Head
					{
						OFFSET 0.000000 7.031097 3.806800
						CHANNELS 3 Xrotation Yrotation Zrotation
						JOINT HeadTop_End
						{
							OFFSET 0.000000 24.646606 12.978600
							CHANNELS 3 Xrotation Yrotation Zrotation
							End Site
							{
								OFFSET 0.000000 27.854965 0.000000
							}
						}
					}
				}
				JOINT LeftShoulder
				{
					OFFSET 16.952999 14.495407 -7.737500
					CHANNELS 3 Xrotation Yrotation Zrotation
					JOINT LeftArm
					{
						OFFSET 9.308998 -2.777710 0.208600
						CHANNELS 3 Xrotation Yrotation Zrotation
						JOINT LeftForeArm
						{
							OFFSET 29.972298 0.000000 0.000000
							CHANNELS 3 Xrotation Yrotation Zrotation
							JOINT LeftHand
							{
								OFFSET 26.026505 0.000000 0.000000
								CHANNELS 3 Xrotation Yrotation Zrotation
								JOINT LeftHandThumb1
								{
									OFFSET 12.240501 -7.147949 9.207150
									CHANNELS 3 Xrotation Yrotation Zrotation
									JOINT LeftHandThumb2
									{
										OFFSET 4.138618 -2.389435 2.389433
										CHANNELS 3 Xrotation Yrotation Zrotation
										JOINT LeftHandThumb3
										{
											OFFSET 2.726913 -1.574387 1.574386
											CHANNELS 3 Xrotation Yrotation Zrotation
											JOINT LeftHandThumb4
											{
												OFFSET 3.941010 -2.275345 2.275342
												CHANNELS 3 Xrotation Yrotation Zrotation
												End Site
												{
													OFFSET -0.005798 5.087799 0.009903
												}
											}
										}
									}
								}
								JOINT LeftHandIndex1
								{
									OFFSET 24.424698 -1.985611 5.953459
									CHANNELS 3 Xrotation Yrotation Zrotation
									JOINT LeftHandIndex2
									{
										OFFSET 6.426697 0.000000 0.000000
										CHANNELS 3 Xrotation Yrotation Zrotation
										JOINT LeftHandIndex3
										{
											OFFSET 5.337898 0.000000 0.000000
											CHANNELS 3 Xrotation Yrotation Zrotation
											JOINT LeftHandIndex4
											{
												OFFSET 4.409401 0.000000 0.000000
												CHANNELS 3 Xrotation Yrotation Zrotation
												End Site
												{
													OFFSET 0.000000 4.409363 0.014373
												}
											}
										}
									}
								}
								JOINT LeftHandMiddle1
								{
									OFFSET 23.810104 0.000000 0.000000
									CHANNELS 3 Xrotation Yrotation Zrotation
									JOINT LeftHandMiddle2
									{
										OFFSET 7.176498 0.000000 0.000000
										CHANNELS 3 Xrotation Yrotation Zrotation
										JOINT LeftHandMiddle3
										{
											OFFSET 6.774902 0.000000 0.000000
											CHANNELS 3 Xrotation Yrotation Zrotation
											JOINT LeftHandMiddle4
											{
												OFFSET 5.403328 0.000000 0.000000
												CHANNELS 3 Xrotation Yrotation Zrotation
												End Site
												{
													OFFSET -0.027702 5.403244 0.017414
												}
											}
										}
									}
								}
								JOINT LeftHandRing1
								{
									OFFSET 22.908401 -0.839279 -6.020567
									CHANNELS 3 Xrotation Yrotation Zrotation
									JOINT LeftHandRing2
									{
										OFFSET 6.337502 0.000000 0.000000
										CHANNELS 3 Xrotation Yrotation Zrotation
										JOINT LeftHandRing3
										{
											OFFSET 5.779297 0.000000 0.000000
											CHANNELS 3 Xrotation Yrotation Zrotation
											JOINT LeftHandRing4
											{
												OFFSET 4.965698 0.000000 0.000000
												CHANNELS 3 Xrotation Yrotation Zrotation
												End Site
												{
													OFFSET 0.000000 4.965668 0.016186
												}
											}
										}
									}
								}
								JOINT LeftHandPinky1
								{
									OFFSET 20.037003 -1.530319 -10.950146
									CHANNELS 3 Xrotation Yrotation Zrotation
									JOINT LeftHandPinky2
									{
										OFFSET 5.254700 0.000000 0.000000
										CHANNELS 3 Xrotation Yrotation Zrotation
										JOINT LeftHandPinky3
										{
											OFFSET 4.810204 0.000000 0.000000
											CHANNELS 3 Xrotation Yrotation Zrotation
											JOINT LeftHandPinky4
											{
												OFFSET 3.647202 0.000000 0.000000
												CHANNELS 3 Xrotation Yrotation Zrotation
												End Site
												{
													OFFSET 0.000000 3.647186 0.011889
												}
											}
										}
									}
								}
							}
						}
					}
				}
				JOINT RightShoulder
				{
					OFFSET -15.141001 14.495407 -7.737500
					CHANNELS 3 Xrotation Yrotation Zrotation
					JOINT RightArm
					{
						OFFSET -9.308998 -2.777710 0.208500
						CHANNELS 3 Xrotation Yrotation Zrotation
						JOINT RightForeArm
						{
							OFFSET -29.972300 0.000000 0.000000
							CHANNELS 3 Xrotation Yrotation Zrotation
							JOINT RightHand
							{
								OFFSET -26.026505 0.000000 0.000000
								CHANNELS 3 Xrotation Yrotation Zrotation
								JOINT RightHandThumb1
								{
									OFFSET -12.240601 -7.148026 9.207092
									CHANNELS 3 Xrotation Yrotation Zrotation
									JOINT RightHandThumb2
									{
										OFFSET -4.138618 -2.389435 2.389433
										CHANNELS 3 Xrotation Yrotation Zrotation
										JOINT RightHandThumb3
										{
											OFFSET -2.726974 -1.574417 1.574421
											CHANNELS 3 Xrotation Yrotation Zrotation
											JOINT RightHandThumb4
											{
												OFFSET -3.941010 -2.275345 2.275343
												CHANNELS 3 Xrotation Yrotation Zrotation
												End Site
												{
													OFFSET 0.005814 5.087799 0.009927
												}
											}
										}
									}
								}
								JOINT RightHandIndex1
								{
									OFFSET -24.424698 -1.985657 5.953444
									CHANNELS 3 Xrotation Yrotation Zrotation
									JOINT RightHandIndex2
									{
										OFFSET -6.426697 0.000000 0.000000
										CHANNELS 3 Xrotation Yrotation Zrotation
										JOINT RightHandIndex3
										{
											OFFSET -5.337898 0.000000 0.000000
											CHANNELS 3 Xrotation Yrotation Zrotation
											JOINT RightHandIndex4
											{
												OFFSET -4.409401 0.000000 0.000000
												CHANNELS 3 Xrotation Yrotation Zrotation
												End Site
												{
													OFFSET 0.000000 4.409363 0.014408
												}
											}
										}
									}
								}
								JOINT RightHandMiddle1
								{
									OFFSET -23.810097 0.000000 0.000000
									CHANNELS 3 Xrotation Yrotation Zrotation
									JOINT RightHandMiddle2
									{
										OFFSET -7.176498 0.000000 0.000000
										CHANNELS 3 Xrotation Yrotation Zrotation
										JOINT RightHandMiddle3
										{
											OFFSET -6.774902 0.000000 0.000000
											CHANNELS 3 Xrotation Yrotation Zrotation
											JOINT RightHandMiddle4
											{
												OFFSET -5.403328 0.000000 0.000000
												CHANNELS 3 Xrotation Yrotation Zrotation
												End Site
												{
													OFFSET 0.027702 5.403244 0.017457
												}
											}
										}
									}
								}
								JOINT RightHandRing1
								{
									OFFSET -22.908302 -0.839325 -6.020576
									CHANNELS 3 Xrotation Yrotation Zrotation
									JOINT RightHandRing2
									{
										OFFSET -6.337502 0.000000 0.000000
										CHANNELS 3 Xrotation Yrotation Zrotation
										JOINT RightHandRing3
										{
											OFFSET -5.779297 0.000000 0.000000
											CHANNELS 3 Xrotation Yrotation Zrotation
											JOINT RightHandRing4
											{
												OFFSET -4.965698 0.000000 0.000000
												CHANNELS 3 Xrotation Yrotation Zrotation
												End Site
												{
													OFFSET 0.000000 4.965668 0.016226
												}
											}
										}
									}
								}
								JOINT RightHandPinky1
								{
									OFFSET -20.037003 -1.530334 -10.950259
									CHANNELS 3 Xrotation Yrotation Zrotation
									JOINT RightHandPinky2
									{
										OFFSET -5.254700 0.000000 0.000000
										CHANNELS 3 Xrotation Yrotation Zrotation
										JOINT RightHandPinky3
										{
											OFFSET -4.810204 0.000000 0.000000
											CHANNELS 3 Xrotation Yrotation Zrotation
											JOINT RightHandPinky4
											{
												OFFSET -3.647202 0.000000 0.000000
												CHANNELS 3 Xrotation Yrotation Zrotation
												End Site
												{
													OFFSET 0.000000 3.647186 0.011917
												}
											}
										}
									}
								}
							}
						}
					}
				}
			}
		}
	}
	JOINT LeftUpLeg
	{
		OFFSET 15.427100 -6.655098 0.678600
		CHANNELS 3 Xrotation Yrotation Zrotation
		JOINT LeftLeg
		{
			OFFSET 4.081073 -39.591068 13.024000
			CHANNELS 3 Xrotation Yrotation Zrotation
			JOINT LeftFoot
			{
				OFFSET -4.081074 -37.707932 -15.979700
				CHANNELS 3 Xrotation Yrotation Zrotation
				JOINT LeftToeBase
				{
					OFFSET 5.346399 -15.068900 20.645000
					CHANNELS 3 Xrotation Yrotation Zrotation
					JOINT LeftToe_End
					{
						OFFSET 2.754700 0.931300 11.300900
						CHANNELS 3 Xrotation Yrotation Zrotation
						End Site
						{
							OFFSET 0.000000 11.669021 0.000000
						}
					}
				}
			}
		}
	}
	JOINT RightUpLeg
	{
		OFFSET -15.569500 -6.655098 0.678600
		CHANNELS 3 Xrotation Yrotation Zrotation
		JOINT RightLeg
		{
			OFFSET -4.081825 -39.591045 13.023800
			CHANNELS 3 Xrotation Yrotation Zrotation
			JOINT RightFoot
			{
				OFFSET 4.081824 -37.707954 -15.979600
				CHANNELS 3 Xrotation Yrotation Zrotation
				JOINT RightToeBase
				{
					OFFSET -5.346400 -15.068900 20.645000
					CHANNELS 3 Xrotation Yrotation Zrotation
					JOINT RightToe_End
					{
						OFFSET -2.754700 0.931300 11.300900
						CHANNELS 3 Xrotation Yrotation Zrotation
						End Site
						{
							OFFSET 0.000000 11.669021 0.000000
						}
					}
				}
			}
		}
	}
}
MOTION
Frames: 4
Frame Time: 0.033333
0.491234 85.097816 1.185005 17.429475 -3.281126 0.087161 14.913158 -1.559607 0.383733 5.346275 -0.845700 -1.559633 5.141035 -0.428916 -0.173901 -8.304045 0.965534 1.844257 -26.440152 5.059198 0.652089 0.000000 0.000000 -0.000000 -18.185054 -16.684730 -4.143142 -14.299582 5.321646 -58.617271 -0.000002 -50.169648 -0.000007 13.748617 -26.697321 34.897011 11.187922 5.997099 -10.405202 5.363084 8.351979 0.904213 -5.734083 10.813584 15.939368 0.000001 -0.000001 0.000002 0.153528 -1.751662 -23.178180 0.809101 2.972624 -30.446531 0.886301 3.100024 -31.903878 -0.000000 -0.000000 0.000000 0.494839 4.564852 -22.398026 0.931152 3.170835 -32.723645 0.559413 2.500197 -25.219770 -0.000003 -0.000000 -0.000003 0.700951 5.019839 -28.509046 0.453627 2.262250 -22.674509 1.672872 4.099663 -44.381309 -0.000000 -0.000000 0.000000 0.465096 8.292840 -13.856687 0.624494 2.633854 -26.672964 2.026722 4.431533 -49.135951 -0.000001 -0.000001 0.000001 -23.769991 22.742590 4.874674 -5.448440 5.986789 54.374982 0.000021 52.736014 -0.000025 3.172468 25.718690 -41.552699 -1.237024 9.918017 5.832134 6.896112 -18.922459 -2.478597 -4.452430 -14.082274 -16.510177 0.000000 -0.000003 -0.000003 0.710413 3.726557 13.785591 0.253614 -1.517370 18.976125 0.289156 -1.617029 20.275714 0.000001 -0.000001 0.000001 0.187452 -3.413290 14.033679 0.448861 -1.996599 25.337239 0.480583 -2.062273 26.233703 -0.000000 0.000003 -0.000006 2.581792 -11.039337 17.202957 1.378460 -3.309278 45.218673 0.423377 -1.941946 24.596233 -0.000001 0.000000 -0.000001 2.630052 -23.282672 23.282112 0.574915 -2.243418 28.743844 1.002131 -2.888111 38.265380 0.000001 -0.000002 0.000000 -41.430688 0.421290 22.225869 32.236014 -4.020583 2.149541 -8.504000 -4.072661 -20.523344 -5.308804 0.000001 0.000007 -0.000000 0.000000 0.000000 -40.364051 -1.237912 -15.706367 34.494696 -1.855121 -7.494573 -8.543141 -2.749539 22.629836 -3.267374 0.000005 -0.000004 0.000000 -0.000000 0.000000 
0.537196 84.508873 1.209003 17.579659 -3.246877 0.142658 14.723586 -1.561029 0.438690 5.312691 -0.863601 -1.497194 5.110429 -0.453886 -0.134210 -8.455336 0.965936 1.769031 -26.417611 5.028705 0.592135 0.000000 -0.000000 -0.000000 -17.906760 -16.378903 -4.230194 -14.967106 4.597531 -58.669187 0.000007 -50.135330 -0.000002 9.367135 -23.901248 32.398517 6.735995 4.444772 -6.293826 5.696511 11.899852 -1.114603 -6.031386 10.277084 13.960331 -0.000001 -0.000000 0.000002 0.688052 -1.880279 -22.976524 0.697471 2.774209 -28.219915 0.641006 2.666399 -27.029932 0.000002 -0.000001 -0.000001 0.685298 5.019905 -22.651549 0.844025 3.031168 -31.113332 0.452771 2.260202 -22.652558 0.000000 0.000002 0.000001 1.096315 5.720868 -29.586440 0.438604 2.225963 -22.290700 1.480565 3.893987 -41.622985 0.000002 0.000000 -0.000000 0.732735 9.437355 -15.371476 0.596536 2.577488 -26.057891 1.724043 4.151195 -45.092752 0.000002 -0.000001 -0.000000 -23.224091 22.709242 4.782448 -6.951925 7.119749 53.975304 -0.000017 52.511526 0.000034 0.445582 25.683403 -40.765537 -2.084323 9.854956 5.297124 6.607081 -19.331327 -1.879353 -4.478196 -13.919889 -16.010906 0.000005 -0.000001 -0.000003 0.807813 3.804616 13.679773 0.234807 -1.461561 18.252600 0.241516 -1.481746 18.514037 -0.000001 0.000000 0.000000 0.209765 -3.503082 13.925569 0.429762 -1.955795 24.783633 0.431369 -1.959302 24.830898 0.000001 0.000003 0.000002 2.598440 -10.973832 17.471762 1.278800 -3.207451 43.465278 0.406697 -1.905103 24.099317 0.000002 -0.000002 -0.000000 2.477822 -22.984582 22.906556 0.536318 -2.171621 27.741898 0.917004 -2.776928 36.542878 0.000005 -0.000003 -0.000002 -42.170729 0.091551 22.267416 33.485272 -4.097109 2.119348 -9.083111 -3.947588 -20.570759 -5.308807 0.000003 0.000008 0.000000 0.000000 -0.000000 -41.062489 -0.839554 -15.916721 35.725830 -1.907252 -7.457214 -9.113330 -2.915330 22.838095 -3.267380 0.000000 0.000002 -0.000000 0.000000 0.000000 
0.594752 83.936737 1.186716 17.684084 -3.309706 0.157361 14.533668 -1.531991 0.489523 5.279758 -0.858414 -1.440785 5.080255 -0.455937 -0.100426 -8.572688 0.965567 1.716718 -26.422785 5.039465 0.512314 -0.000001 -0.000000 0.000000 -17.602024 -16.134693 -4.212072 -15.315277 3.803764 -58.805627 0.000009 -50.526509 0.000008 2.970396 -20.025567 29.538212 1.848469 2.540089 -1.914488 6.096138 15.899765 -3.389997 -6.336378 9.806471 11.756743 -0.000002 -0.000001 0.000001 1.316903 -2.037336 -22.488150 0.588782 2.561578 -25.885065 0.413808 2.164554 -21.643536 -0.000001 -0.000000 0.000001 0.890247 5.505010 -22.717600 0.752471 2.874180 -29.335847 0.347337 1.989002 -19.809432 -0.000000 0.000000 0.000001 1.538178 6.446474 -30.585218 0.416259 2.170695 -21.708146 1.293769 3.673479 -38.792964 -0.000002 -0.000001 0.000000 1.083659 10.565749 -16.718613 0.565892 2.513959 -25.368349 1.424329 3.829909 -40.787994 -0.000002 -0.000002 -0.000000 -22.679037 22.704753 4.684189 -8.525130 8.314564 53.692739 -0.000034 52.353267 0.000041 -2.958217 24.657406 -38.390762 -3.754060 9.644704 3.875187 6.449834 -20.548535 -0.666851 -4.506811 -13.721663 -14.911959 -0.000000 0.000001 -0.000000 1.061541 3.856146 13.684326 0.217471 -1.407933 17.560382 0.183182 -1.294619 16.106351 -0.000001 0.000001 -0.000003 0.269247 -3.736639 14.161420 0.408552 -1.909211 24.154534 0.364092 -1.806901 22.783819 -0.000001 0.000003 -0.000001 2.684244 -10.825128 18.451148 1.134273 -3.047957 40.816934 0.394739 -1.878133 23.736632 0.000001 -0.000001 -0.000002 2.388064 -22.323688 22.579746 0.495754 -2.092710 26.651407 0.815857 -2.635148 34.400907 0.000002 0.000002 -0.000002 -42.848905 -0.248359 22.389264 34.721171 -4.121923 2.084649 -9.648614 -3.819236 -20.630890 -5.308808 0.000000 -0.000000 -0.000000 0.000000 -0.000000 -41.707297 -0.357049 -16.011316 36.859594 -1.990371 -7.433667 -9.576480 -3.073006 23.065291 -3.267374 0.000005 -0.000005 -0.000000 0.000000 0.000000 
0.647239 83.321838 1.124968 17.718405 -3.449227 0.178651 14.328303 -1.490513 0.530546 5.232797 -0.840198 -1.391825 5.035974 -0.444968 -0.073966 -8.653384 0.965256 1.659386 -26.464316 5.046215 0.417279 0.000000 0.000000 -0.000000 -17.289377 -15.957298 -4.150698 -15.707193 2.885175 -59.002883 0.000012 -51.141298 0.000018 -4.588323 -15.221888 27.081207 -3.279946 0.328058 2.414268 6.530996 20.104477 -5.809589 -6.631721 9.334641 9.425904 -0.000003 0.000000 0.000002 1.984541 -2.248421 -21.716709 0.485491 2.337005 -23.468769 0.227830 1.619460 -16.015146 -0.000002 -0.000004 0.000001 1.083999 5.972863 -22.578768 0.659548 2.702407 -27.425923 0.250261 1.695671 -16.791081 -0.000001 0.000002 0.000001 2.001325 7.163318 -31.415602 0.387714 2.097637 -20.941725 1.113177 3.437179 -35.881296 0.000003 -0.000000 -0.000002 1.489184 11.662701 -17.899298 0.531258 2.439621 -24.566739 1.139256 3.472873 -36.313886 0.000001 0.000000 -0.000001 -22.110135 22.611768 4.522476 -10.227595 9.665233 53.536628 0.000001 52.687396 -0.000020 -5.592396 22.042405 -35.360340 -6.166471 9.399373 1.685918 6.442315 -22.470014 1.118193 -4.554023 -13.459556 -13.286610 -0.000002 0.000001 0.000002 1.446223 3.909618 13.753688 0.201056 -1.355004 16.879629 0.122493 -1.062195 13.156012 0.000004 0.000001 -0.000002 0.362663 -4.082256 14.647969 0.385437 -1.856855 23.451301 0.286117 -1.608767 20.167643 -0.000002 0.000001 -0.000000 2.806542 -10.587258 19.990994 0.956692 -2.829650 37.354448 0.386512 -1.859354 23.484567 -0.000000 0.000002 -0.000002 2.355782 -21.348791 22.222282 0.453554 -2.006465 25.471444 0.703940 -2.463926 31.885331 -0.000000 0.000002 -0.000001 -43.478122 -0.598456 22.563641 36.028459 -4.116465 2.042967 -10.242886 -3.676518 -20.724406 -5.308809 0.000003 -0.000003 0.000000 0.000000 0.000000 -42.355707 0.226647 -16.051493 38.060918 -2.084539 -7.416178 -10.023601 -3.231742 23.305553 -3.267379 0.000004 0.000002 0.000000 -0.000001 0.000000 
